<svg width="32" height="22" viewBox="0 0 32 22" fill="none" xmlns="http://www.w3.org/2000/svg">
<path d="M10.4396 0.718518C11.6548 0.718518 12.8453 0.925389 13.9779 1.33339C15.0347 1.71406 16.0181 2.26078 16.9027 2.95928L9.09418 10.7681L9.0172 10.845L9.09418 10.922L17.2462 19.0741C16.3348 19.8587 15.3065 20.4743 14.1879 20.9048C12.9928 21.3647 11.7317 21.5979 10.4396 21.5979C9.0302 21.5979 7.66303 21.3219 6.37605 20.7776C5.13293 20.2518 4.01647 19.499 3.05769 18.5403C2.09891 17.5815 1.34618 16.465 0.82039 15.2219C0.276057 13.9349 5.84202e-05 12.5677 5.8539e-05 11.1583C5.86578e-05 9.74893 0.276058 8.38174 0.820391 7.09475C1.34618 5.8516 2.09892 4.73511 3.05769 3.7763C4.01648 2.81747 5.13294 2.0647 6.37605 1.53889C7.66303 0.994531 9.0302 0.718517 10.4396 0.718518Z" fill="white"/>
<path d="M11.0128 10.8448L21.4553 21.2874L31.8979 10.8448L21.4553 0.402278L11.0128 10.8448Z" fill="white"/>
</svg>
